<svg width="280" height="150" viewBox="0 0 280 150" fill="none" xmlns="http://www.w3.org/2000/svg">
<path d="M73.4001 119.051L129.914 133.691L203.876 114.825V117.761L129.914 138.529L73.3999 122.001L73.4001 119.051Z" fill="#E0E4EC"/>
<path d="M73.4001 119.051L129.914 133.691L203.876 114.825L199.874 114.133L76.2782 118.776L73.4001 119.051Z" fill="#E0E4EC"/>
<path d="M73.4001 119.051L129.914 133.691L203.876 114.825M73.4001 119.051L73.3999 122.001L129.914 138.529L203.876 117.761V114.825M73.4001 119.051L76.2782 118.776L199.874 114.133L203.876 114.825" stroke="#6E7E92" stroke-linecap="round" stroke-linejoin="round"/>
<path d="M73.4004 119.582L129.915 135.304L203.877 115.342V117.76L129.915 138.528L73.4004 122.001V119.582Z" fill="#E0E4EC" stroke="#6E7E92" stroke-linecap="round" stroke-linejoin="round"/>
<path d="M105.5 40C94.5674 32.9187 75 26.5 75 26.5V120L130 134.5V85.5C130 57.5 121.615 50.4379 105.5 40Z" fill="#E0E4EC" stroke="#6E7E92" stroke-linecap="round" stroke-linejoin="round"/>
<path d="M79.0659 36.7584L112.433 46.9991L112.433 126.292L78.8135 118.073L79.0659 36.7584Z" fill="#E0E4EC" stroke="#6E7E92" stroke-linecap="round" stroke-linejoin="round"/>
<path d="M90.2777 60.73L101.228 63.3509L101.228 81.8196L90.1948 79.6555L90.2777 60.73Z" fill="#E0E4EC" stroke="#6E7E92" stroke-linecap="round" stroke-linejoin="round"/>
<path d="M130.842 85.5122L202.083 68.1785L202.083 115.766L130.842 134.905L130.842 85.5122Z" fill="#E0E4EC" stroke="#6E7E92" stroke-linecap="round" stroke-linejoin="round"/>
<path d="M148.7 123.229V126.241L157.045 123.912V120.986L148.7 123.229Z" fill="#E0E4EC" stroke="#6E7E92" stroke-linecap="round" stroke-linejoin="round"/>
<path d="M178.069 115.167V118.179L186.414 115.849V112.923L178.069 115.167Z" fill="#E0E4EC" stroke="#6E7E92" stroke-linecap="round" stroke-linejoin="round"/>
<path d="M105.228 39.8677L176.469 22.534C195.719 37.6413 200.536 47.8727 202.083 68.1786L130.843 85.5124C130.241 60.663 124.044 51.1154 105.228 39.8677Z" fill="#E0E4EC" stroke="#6E7E92" stroke-linecap="round" stroke-linejoin="round"/>
<path d="M133.244 78.6446V83.3735L139.648 81.8705V77.2078L133.244 78.6446Z" fill="#E0E4EC" stroke="#6E7E92" stroke-linecap="round" stroke-linejoin="round"/>
<path d="M75.2114 26.2545L150.454 10.1301C161.288 14.624 167.008 17.3424 176.469 22.6265L105.229 39.9602C94.7487 34.0654 88.4285 30.9537 75.2114 26.2545Z" fill="#E0E4EC" stroke="#6E7E92" stroke-linecap="round" stroke-linejoin="round"/>
</svg>
