<svg width="280" height="150" viewBox="0 0 280 150" fill="none" xmlns="http://www.w3.org/2000/svg">
<path d="M51.8682 117.46L108.698 133.668L226.695 103.419V105.913L108.698 136.992L51.8682 119.953V117.46Z" fill="#E0E4EC" stroke="#6E7E92" stroke-linecap="round" stroke-linejoin="round"/>
<path d="M171.05 34.9685L108.51 49.0081V130.343C108.51 131.023 109.153 131.52 109.813 131.35L171.05 115.566V34.9685Z" fill="#E0E4EC" stroke="#6E7E92" stroke-linecap="round" stroke-linejoin="round"/>
<path fill-rule="evenodd" clip-rule="evenodd" d="M225.5 21V103.5L109.012 133.796L109.012 48.8939L225.5 21Z" fill="#E0E4EC" stroke="#6E7E92" stroke-linecap="round" stroke-linejoin="round"/>
<path fill-rule="evenodd" clip-rule="evenodd" d="M113.489 51.3507V127.645L170.344 112.99V38.5874L113.489 51.3507Z" fill="#F8F9FD" stroke="#6E7E92" stroke-width="0.974032" stroke-linecap="round" stroke-linejoin="round"/>
<path d="M172.324 38.0526L222 25.9446V99.4192L172.324 112.423V38.0526Z" fill="#F8F9FD" stroke="#6E7E92" stroke-width="0.974032" stroke-linecap="round" stroke-linejoin="round"/>
<path d="M53 33L109 48.873V133.792L53 117.919V33Z" fill="#E0E4EC" stroke="#6E7E92" stroke-linecap="round" stroke-linejoin="round"/>
<path d="M53.0137 33.0031L108.511 49.0081L225.5 20.9415L171.051 10.5293L53.0137 33.0031Z" fill="#E0E4EC" stroke="#6E7E92" stroke-linecap="round" stroke-linejoin="round"/>
</svg>
