<svg width="280" height="150" viewBox="0 0 280 150" fill="none" xmlns="http://www.w3.org/2000/svg">
<path d="M41.6699 109.658L120.154 133.563L238.899 105.353V108.681L120.154 138L41.6699 114.195V109.658Z" fill="#E0E4EC" stroke="#6E7E92" stroke-linecap="round" stroke-linejoin="round"/>
<path d="M41.2979 30.4943L120.715 50.2725V133.475L41.2979 110.178V30.4943Z" fill="#E0E4EC" stroke="#6E7E92" stroke-linecap="round" stroke-linejoin="round"/>
<path d="M97.6763 66.1672L107.888 68.4587V83.9172L97.6763 81.8075V66.1672Z" fill="#E0E4EC" stroke="#6E7E92" stroke-linecap="round" stroke-linejoin="round"/>
<path d="M45.8784 37.8243L115.268 55.4161V126.761L45.8784 106.237V37.8243Z" fill="#E0E4EC" stroke="#6E7E92" stroke-linecap="round" stroke-linejoin="round"/>
<path d="M41.2983 30.4947L120.715 50.2733L223.39 28.2347L239.388 24.6307L160.991 12L147.377 14.2713L41.2983 30.4947Z" fill="#E0E4EC" stroke="#6E7E92" stroke-linecap="round" stroke-linejoin="round"/>
<path d="M120.147 133.476L120.715 50.2733L239.388 24.631L238.821 104.994L120.147 133.476Z" fill="#E0E4EC" stroke="#6E7E92" stroke-linecap="round" stroke-linejoin="round"/>
<path d="M234.99 30.9829L126.508 55.4159V126.272L234.99 100.373V30.9829Z" fill="#E0E4EC" stroke="#6E7E92" stroke-linecap="round" stroke-linejoin="round"/>
<line x1="77.6304" y1="114.533" x2="77.6304" y2="46.1428" stroke="#6E7E92" stroke-linecap="round" stroke-linejoin="round"/>
<line x1="80.563" y1="115.51" x2="80.563" y2="47.12" stroke="#6E7E92" stroke-linecap="round" stroke-linejoin="round"/>
<line x1="74.6987" y1="114.533" x2="74.6987" y2="46.1428" stroke="#6E7E92" stroke-linecap="round" stroke-linejoin="round"/>
</svg>
